<svg width="236" height="65" viewBox="0 0 236 65" fill="none" xmlns="http://www.w3.org/2000/svg">
<path d="M74.4222 31.2488C74.4222 41.8763 81.2276 49.2863 90.658 49.2863C100.088 49.2863 106.894 41.8763 106.894 31.2488C106.894 20.6213 100.088 13.2113 90.658 13.2113C81.2276 13.2113 74.4222 20.6213 74.4222 31.2488ZM100.672 31.2488C100.672 38.8538 96.5398 43.7776 90.658 43.7776C84.7761 43.7776 80.6443 38.8538 80.6443 31.2488C80.6443 23.6438 84.7761 18.7201 90.658 18.7201C96.5398 18.7201 100.672 23.6438 100.672 31.2488Z" fill="white"/>
<path d="M124.416 49.2863C131.561 49.2863 135.645 43.2413 135.645 35.9776C135.645 28.7138 131.561 22.6688 124.416 22.6688C121.11 22.6688 118.68 23.9851 117.076 25.8863V23.1563H111.242V57.5251H117.076V46.0688C118.68 47.9701 121.11 49.2863 124.416 49.2863ZM116.93 35.2463C116.93 30.4201 119.652 27.7876 123.249 27.7876C127.478 27.7876 129.763 31.1026 129.763 35.9776C129.763 40.8526 127.478 44.1676 123.249 44.1676C119.652 44.1676 116.93 41.4863 116.93 36.7576V35.2463Z" fill="white"/>
<path d="M151.431 49.2863C156.535 49.2863 160.569 46.6051 162.368 42.1201L157.361 40.2188C156.583 42.8513 154.299 44.3138 151.431 44.3138C147.688 44.3138 145.063 41.6326 144.625 37.2451H162.514V35.2951C162.514 28.2751 158.576 22.6688 151.188 22.6688C143.799 22.6688 139.035 28.4701 139.035 35.9776C139.035 43.8751 144.139 49.2863 151.431 49.2863ZM151.139 27.5926C154.833 27.5926 156.583 30.0301 156.632 32.8576H144.917C145.792 29.3963 148.125 27.5926 151.139 27.5926Z" fill="white"/>
<path d="M166.891 48.7501H172.724V33.7351C172.724 30.0788 175.398 28.1288 178.023 28.1288C181.231 28.1288 182.495 30.4201 182.495 33.5888V48.7501H188.328V31.8826C188.328 26.3738 185.12 22.6688 179.773 22.6688C176.467 22.6688 174.182 24.1801 172.724 25.8863V23.1563H166.891V48.7501Z" fill="white"/>
<path d="M205.412 13.7476L192.19 48.7501H198.364L201.329 40.7551H216.398L219.412 48.7501H225.683L212.461 13.7476H205.412ZM208.815 20.6701L214.357 35.2951H203.371L208.815 20.6701Z" fill="white"/>
<path d="M235.697 13.8491H229.474V48.8516H235.697V13.8491Z" fill="white"/>
<path d="M60.1672 26.6033C61.6377 22.1772 61.1313 17.3287 58.7798 13.3027C55.2434 7.12771 48.1342 3.95084 41.191 5.44584C38.1023 1.95615 33.6646 -0.0283802 29.0122 5.73441e-05C21.9151 -0.0161927 15.618 4.56631 13.4346 11.3385C8.8754 12.2749 4.94 15.1369 2.63709 19.1933C-0.925627 25.3521 -0.113432 33.1155 4.64631 38.3968C3.17586 42.8229 3.68221 47.6715 6.03373 51.6974C9.57012 57.8724 16.6794 61.0493 23.6225 59.5543C26.7093 63.044 31.149 65.0285 35.8014 64.998C42.9025 65.0163 49.2016 60.4297 51.385 53.6515C55.9442 52.7151 59.8796 49.853 62.1825 45.7966C65.7412 39.6379 64.927 31.8805 60.1693 26.5993L60.1672 26.6033ZM35.8054 60.7507C32.9638 60.7547 30.2112 59.7574 28.0298 57.9313C28.1291 57.8785 28.3012 57.783 28.4126 57.714L41.3186 50.239C41.9789 49.8632 42.384 49.1583 42.38 48.3966V30.1499L47.8344 33.3085C47.8932 33.3369 47.9316 33.3938 47.9397 33.4588V48.5693C47.9316 55.2887 42.5055 60.7365 35.8054 60.7507ZM9.70987 49.5727C8.286 47.1068 7.77357 44.2163 8.26169 41.4111C8.35689 41.468 8.525 41.5716 8.6445 41.6407L21.5505 49.1157C22.2047 49.4996 23.0149 49.4996 23.6711 49.1157L39.4269 39.9913V46.3085C39.4309 46.3735 39.4006 46.4365 39.3499 46.4771L26.3042 54.0313C20.4932 57.3869 13.0721 55.3922 9.7119 49.5727H9.70987ZM6.31324 21.3201C7.73103 18.8501 9.96913 16.961 12.6346 15.9799C12.6346 16.0916 12.6285 16.2887 12.6285 16.4268V31.3788C12.6245 32.1385 13.0295 32.8433 13.6878 33.2191L29.4436 42.3415L23.9891 45.5001C23.9344 45.5366 23.8656 45.5427 23.8048 45.5163L10.757 37.956C4.95823 34.5882 2.96926 27.1477 6.31121 21.3221L6.31324 21.3201ZM51.1278 31.779L35.372 22.6546L40.8265 19.498C40.8811 19.4615 40.95 19.4554 41.0108 19.4818L54.0585 27.036C59.8675 30.4018 61.8585 37.8544 58.5023 43.6801C57.0825 46.146 54.8464 48.0351 52.183 49.0182V33.6193C52.1891 32.8596 51.786 32.1568 51.1298 31.779H51.1278ZM56.5559 23.5849C56.4607 23.526 56.2926 23.4244 56.1731 23.3554L43.2671 15.8804C42.6129 15.4965 41.8027 15.4965 41.1465 15.8804L25.3907 25.0047V18.6876C25.3867 18.6226 25.417 18.5596 25.4677 18.519L38.5134 10.9708C44.3244 7.60912 51.7536 9.6099 55.1037 15.4396C56.5194 17.9015 57.0319 20.7838 56.5518 23.5849H56.5559ZM22.4255 34.8441L16.969 31.6855C16.9103 31.6571 16.8718 31.6002 16.8637 31.5352V16.4247C16.8677 9.69725 22.31 4.24537 29.0182 4.24943C31.8559 4.24943 34.6023 5.24881 36.7837 7.06881C36.6845 7.12162 36.5143 7.21709 36.4009 7.28615L23.4949 14.7612C22.8346 15.1369 22.4295 15.8397 22.4336 16.6015L22.4255 34.8401V34.8441ZM25.3887 28.4376L32.4068 24.373L39.4249 28.4355V36.5626L32.4068 40.6251L25.3887 36.5626V28.4376Z" fill="white"/>
</svg>
